<svg width="73" height="20" viewBox="0 0 73 20" xmlns="http://www.w3.org/2000/svg"><title>icons-contact-footer</title><g fill="#FFF" fill-rule="evenodd"><path d="M8.085 18.52c-1.23.646-2.46 1.107-3.78 1.2-.965.09-1.756-.186-2.372-.923-.44-.553-.966-1.013-1.406-1.474-.703-.737-.703-1.66 0-2.396.79-.92 1.67-1.75 2.46-2.58.704-.737 1.583-.737 2.198 0l1.582 1.66c.176.183.264.183.44.09l1.054-.552c1.495-1.013 2.813-2.303 3.868-3.686.527-.738 1.055-1.475 1.406-2.304.088-.185.088-.277-.088-.46-.527-.554-1.054-1.107-1.494-1.567-.703-.74-.703-1.66 0-2.397.44-.46.79-.83 1.23-1.29l1.23-1.29c.704-.737 1.583-.737 2.198 0l1.582 1.658c.527.462.703 1.107.79 1.752.09 1.106-.175 2.212-.526 3.225-.79 2.212-1.934 4.055-3.34 5.897-2.02 2.212-4.306 4.055-7.03 5.437M29.68 12.368c0-4.214 4.387-7.644 9.782-7.644 1.47 0 2.865.255 4.118.714C41.773 2.238 37.614 0 32.77 0 26.27 0 21 4.03 21 9.002c0 2.513 1.348 4.784 3.52 6.417l-.86 4.176 3.872-2.534c1.58.602 3.356.94 5.238.94h.087c-1.952-1.4-3.178-3.406-3.178-5.634zm18.32 0c0-3.452-3.767-6.262-8.4-6.262-4.632 0-8.4 2.81-8.4 6.262 0 3.453 3.768 6.263 8.4 6.263 1.057 0 2.09-.148 3.077-.44l2.685 1.62-.397-2.64C46.895 15.97 48 14.235 48 12.37zM72.05 5.814c0-.34-.256-.55-.66-.33L60.48 12.072l-10.82-6.585c-.337-.186-.658.053-.658.333V16.68c0 .363.297.66.66.66h21.73c.363 0 .66-.297.66-.66V5.814zm-.66-1.975L60.48 10.423 49.658 3.84C49.32 3.65 49 3.54 49 3.18v-.52c0-.364.296-.66.66-.66h21.73c.363 0 .66.296.66.66v.52c.017.35-.256.438-.66.66z"/></g></svg>