<?xml version="1.0" encoding="UTF-8" standalone="no"?>
<svg width="14px" height="15px" viewBox="0 0 14 15" version="1.1" xmlns="http://www.w3.org/2000/svg" xmlns:xlink="http://www.w3.org/1999/xlink">
    <!-- Generator: Sketch 3.6.1 (26313) - http://www.bohemiancoding.com/sketch -->
    <title>icon menu </title>
    <desc>Created with Sketch.</desc>
    <defs></defs>
    <g id="SEARCH-RESULTS" stroke="none" stroke-width="1" fill="none" fill-rule="evenodd">
        <g id="Landscape-Copy" transform="translate(-535.000000, -58.000000)" stroke="#9B9B9B" fill="#9B9B9B">
            <path d="M540.751649,65.5027027 L536.233079,70.0212722 C535.898342,70.3560092 535.892912,70.9203447 536.237635,71.2650675 C536.584761,71.6121936 537.139224,71.6118301 537.48143,71.2696237 L542,66.7510542 L546.51857,71.2696237 C546.860776,71.6118301 547.415239,71.6121936 547.762365,71.2650675 C548.107088,70.9203447 548.101658,70.3560092 547.766921,70.0212722 L543.248351,65.5027027 L547.766921,60.9841332 C548.101658,60.6493962 548.107088,60.0850607 547.762365,59.7403379 C547.415239,59.3932118 546.860776,59.3935753 546.51857,59.7357817 L542,64.2543512 L537.48143,59.7357817 C537.139224,59.3935753 536.584761,59.3932118 536.237635,59.7403379 C535.892912,60.0850607 535.898342,60.6493962 536.233079,60.9841332 L540.751649,65.5027027 Z" id="icon-menu-"></path>
        </g>
    </g>
</svg>