<?xml version="1.0" encoding="UTF-8" standalone="no"?>
<svg width="34px" height="29px" viewBox="0 0 34 29" version="1.1" xmlns="http://www.w3.org/2000/svg" xmlns:xlink="http://www.w3.org/1999/xlink">
    <!-- Generator: Sketch 3.7 (28169) - http://www.bohemiancoding.com/sketch -->
    <title>Combined Shape</title>
    <desc>Created with Sketch.</desc>
    <defs></defs>
    <g id="1.-HEADER" stroke="none" stroke-width="1" fill="none" fill-rule="evenodd">
        <g id="DESKTOP---CART-ON" transform="translate(-1031.000000, -43.000000)" fill="#FFFFFF">
            <g id="CART" transform="translate(1019.000000, 29.000000)">
                <g id="Group-10" transform="translate(12.000000, 0.000000)">
                    <path d="M31.184373,18.6584302 L33.3786199,18.6584302 L32.0588673,30.6897271 L13.2098834,33.4690092 L13.9358032,36.0283806 L28.2011862,36.0283806 C28.2183017,36.0283806 28.2320685,36.0328839 28.2465795,36.0328839 C30.0615648,36.065908 31.5227062,37.5549968 31.5227062,39.3919649 C31.5227062,41.2491979 30.0299384,42.7547988 28.1889078,42.7547988 C26.347505,42.7547988 24.8554814,41.2491979 24.8554814,39.3919649 C24.8554814,39.1251449 24.8893403,38.8677066 24.947012,38.6207761 L12.1587695,38.6207761 C12.2134647,38.8628281 12.2454632,39.1127608 12.2454632,39.3720754 C12.2454632,41.2293084 10.7538116,42.7356598 8.91240888,42.7356598 C7.07100615,42.7356598 5.57823836,41.2293084 5.57823836,39.3720754 C5.57823836,37.5163435 7.07100615,36.0107427 8.91240888,36.0107427 C10.0669598,36.0107427 11.0842149,36.603301 11.6828847,37.5032089 L6.17281536,18.0838851 C5.69134938,16.3429872 3.31639006,16.0416419 2.42043173,17.6226729 C1.57098286,19.1222693 -0.659611076,17.8369545 0.189465715,16.3373581 C2.21839461,12.7564898 7.54689099,13.4368623 8.64339814,17.3757423 L9.00525658,18.649966 L9,18.6500015 L12.5,31.1299992 L30.1999512,28.6700001 L31.184373,18.6584302 Z" id="Combined-Shape"></path>
                </g>
            </g>
        </g>
    </g>
</svg>