<?xml version="1.0" encoding="UTF-8" standalone="no"?>
<svg width="35px" height="21px" viewBox="0 0 35 21" version="1.1" xmlns="http://www.w3.org/2000/svg" xmlns:xlink="http://www.w3.org/1999/xlink">
    <!-- Generator: Sketch 3.8.3 (29802) - http://www.bohemiancoding.com/sketch -->
    <title>arrow-left-ddd-grey</title>
    <desc>Created with Sketch.</desc>
    <defs></defs>
    <g id="Page-1" stroke="none" stroke-width="1" fill="none" fill-rule="evenodd">
        <g id="arrow-left-ddd-grey" transform="translate(17.500000, 10.500000) scale(1, -1) rotate(90.000000) translate(-17.500000, -10.500000) translate(7.000000, -7.000000)" fill="#DDDDDD">
            <path d="M0,17.5 C0,18.3 0.3,19 0.9,19.6 L15.4,34.1 C16,34.7 16.7,35 17.5,35 C18.3,35 19,34.7 19.6,34.1 C20.2,33.5 20.5,32.8 20.5,32 C20.5,31.2 20.2,30.5 19.6,29.9 L7.2,17.5 L19.6,5.1 C20.2,4.5 20.5,3.8 20.5,3 C20.5,2.2 20.2,1.5 19.6,0.9 C19,0.3 18.3,0 17.5,0 C16.7,0 16,0.3 15.4,0.9 L0.9,15.4 L0.8,15.5 L0.8,15.6 C0.5,16 0,16.6 0,17.5 L0,17.5 Z" id="Shape"></path>
        </g>
    </g>
</svg>