<?xml version="1.0" encoding="UTF-8" standalone="no"?>
<svg width="29px" height="22px" viewBox="0 0 29 22" version="1.1" xmlns="http://www.w3.org/2000/svg" xmlns:xlink="http://www.w3.org/1999/xlink">
    <!-- Generator: Sketch 3.7.1 (28215) - http://www.bohemiancoding.com/sketch -->
    <title>Fill 1</title>
    <desc>Created with Sketch.</desc>
    <defs></defs>
    <g id="4.-SECONDARY-NAV" stroke="none" stroke-width="1" fill="none" fill-rule="evenodd">
        <g id="247-HELP---on" transform="translate(-791.000000, -219.000000)" fill="#128CED">
            <g id="HELP-ON" transform="translate(751.000000, 69.000000)">
                <g id="Chat-/-email" transform="translate(4.000000, 123.000000)">
                    <g id="chat" transform="translate(36.000000, 16.500000)">
                        <path d="M9.29189498,24.2420488 C9.29189498,19.7296521 13.9901643,16.0572954 19.7655118,16.0572954 C21.340081,16.0572954 22.8334213,16.3310455 24.1749993,16.8215988 C22.2402478,13.3958196 17.7871106,11 12.6011786,11 C5.6412186,11 0,15.3146722 0,20.6373347 C0,23.3285848 1.443331,25.759671 3.76717196,27.5076828 L2.84705929,31.9796096 L6.99378133,29.2666792 C8.68368981,29.9115964 10.5860654,30.2746694 12.6011786,30.2746694 C12.6323983,30.2746694 12.663618,30.2720678 12.6945485,30.2720678 C10.6051441,28.7761259 9.29189498,26.6271728 9.29189498,24.2420488 Z M28.9070899,24.2420488 C28.9070899,20.5454102 24.8742618,17.5370493 19.9146724,17.5370493 C14.955083,17.5370493 10.9196532,20.5454102 10.9196532,24.2420488 C10.9196532,27.9389765 14.955083,30.9470483 19.9146724,30.9470483 C21.0449396,30.9470483 22.1520811,30.7871921 23.2077681,30.4755737 L26.0831563,32.2099991 L25.6576439,29.3834638 C27.7253681,28.0988328 28.9070899,26.2395287 28.9070899,24.2420488 Z" id="Fill-1"></path>
                    </g>
                </g>
            </g>
        </g>
    </g>
</svg>