<svg id="Layer_1" xmlns="http://www.w3.org/2000/svg" width="172" height="50.8" viewBox="0 0 172 50.8"><style>.st0{fill:#FFFFFF;}</style><path class="st0" d="M13.9 9.8c8.1-1.5 14.2 1.3 14.9 5.4.5 2.6-1 4.6-3.3 5.1-3 .6-5-3.3-9.2-2.5-4.7.9-5 5-4.4 8.2.7 3.8 2.7 7.4 6.7 6.6 3.9-.7 4.8-5.2 8-5.8 2.8-.5 4.8 1.4 5.1 3.5.4 2.4-1.8 8.5-12 10.5C10.6 42.4 2.4 39 .4 28.4c-2-10.7 4.3-16.8 13.5-18.6M53 26.8c.3-3.2-1-5.1-3.9-5.4-2.9-.3-4.5 1.9-4.9 5.4l-1 10.4c-.4 4-3 5.6-6.4 5.3-3.4-.3-5.7-2.4-5.3-6.3l2.8-30.9c.4-4 3-5.6 6.4-5.3 3.4.3 5.7 2.4 5.3 6.3l-.9 10h.1c2.4-2.9 5.3-4.2 9.3-3.8 8.1.7 11 6.1 10.4 12.6l-1.3 14c-.4 4-3 5.6-6.4 5.3-3.4-.3-5.7-2.4-5.3-6.3L53 26.8z"/><path class="st0" d="M83.5 16.5c-2-3.6-5-3.6-7.5-2.2-2.3 1.3-4 3.9-2.1 7.6l9.6-5.4zm4 19.5c-8.2 4.6-17 4-22.3-5.5-5.3-9.4-1.3-17.3 6.9-21.9 11.4-6.5 19.4-.6 21.5 3.3 1.7 3.1.9 5-2.4 6.9L76.7 27c2.1 3.1 5.2 4.2 8.5 2.3 3.7-2.1 4.1-6.5 7.3-8.3 1.8-1 4.2-.1 5.1 1.6 1.7 2.8-.2 7.8-10.1 13.4"/><path class="st0" d="M111.7 16.2c.5-4.6 1.3-5.9 5.8-6.2 4.5-.4 5.4.7 6.8 5.2l4.7 14.5h.1l2.2-17.1c.3-2.3 1.4-3.9 4.7-4.2 3.5-.3 5.7 1.8 5.9 4.4.1 1.5-.1 2.9-.7 5.3l-3.8 16.2c-1.1 4.9-2.3 5.7-6.4 6.1-4.4.4-6.9.2-8.6-4.9L118.8 23h-.1L117 35.8c-.7 5.3-3.2 6-7.6 6.3-4 .4-5.4-.3-7.3-4.9L95.5 22c-1-2.3-1.5-3.7-1.6-5.1-.2-2.6 1.6-5 5-5.3 3.3-.3 4.7 1.1 5.4 3.3l5.4 16.4h.1l1.9-15.1zM160.6 17.2c1.8-4.7 3.5-6.3 6.5-5.9 2.8.4 5.3 2.4 4.8 5.7-.1 1-1.3 3.5-3.2 7.2l-9.5 19c-3.6 7.1-8.9 8.1-13.8 7.4-4.6-.6-6.7-2.8-6.3-5.8.4-2.8 2.3-3.4 5-3 2.4.3 3.1-.2 3.2-1 .1-.5 0-1.4-.3-2.3l-3.8-18.6c-.9-4.2-1-6-.9-6.9.4-2.8 3.1-4.7 6.4-4.2 2.7.4 4.1 1.9 4.4 5l2 17h.1l5.4-13.6z"/></svg>