<?xml version="1.0" encoding="UTF-8" standalone="no"?>
<svg width="24px" height="17px" viewBox="0 0 24 17" version="1.1" xmlns="http://www.w3.org/2000/svg" xmlns:xlink="http://www.w3.org/1999/xlink">
    <!-- Generator: Sketch 3.7.1 (28215) - http://www.bohemiancoding.com/sketch -->
    <title>Combined Shape</title>
    <desc>Created with Sketch.</desc>
    <defs></defs>
    <g id="4.-SECONDARY-NAV" stroke="none" stroke-width="1" fill="none" fill-rule="evenodd">
        <g id="247-HELP---on" transform="translate(-980.000000, -222.000000)" fill="#128CED">
            <g id="HELP-ON" transform="translate(751.000000, 69.000000)">
                <g id="Chat-/-email" transform="translate(4.000000, 123.000000)">
                    <g id="email" transform="translate(225.000000, 15.000000)">
                        <path d="M23.0494248,19.0870356 C23.0501914,18.7231534 22.7941378,18.4972671 22.3908917,18.7341054 L11.4782037,25.7902449 L0.658533091,18.7341054 C0.321216956,18.5345041 -1.67853524e-13,18.7905085 0.000255542526,19.090595 L0.000255542526,30.7293509 C0.000255542526,31.1173277 0.296684873,31.4349375 0.658788634,31.4349375 L22.3908917,31.4349375 C22.7529955,31.4349375 23.0494248,31.1173277 23.0494248,30.7293509 L23.0494248,19.0870356 Z M22.3908917,16.9700021 L11.4782037,24.0261416 L0.658533091,16.9700021 C0.319939243,16.7698532 0,16.6523923 0,16.2644155 L0,15.7055866 C0,15.3176098 0.296429331,15 0.658533091,15 L22.3906362,15 C22.7527399,15 23.0491693,15.3176098 23.0491693,15.7055866 L23.0491693,16.2644155 C23.0670572,16.6395236 22.7941378,16.7331638 22.3908917,16.9700021 Z" id="Combined-Shape"></path>
                    </g>
                </g>
            </g>
        </g>
    </g>
</svg>