<svg width="19" height="24" viewBox="0 0 19 24" xmlns="http://www.w3.org/2000/svg" xmlns:xlink="http://www.w3.org/1999/xlink"><title>icon-lock-yellow</title><defs><path d="M217.722 27.98v-8.31c0-1.154-.93-2.124-2.1-2.124h-.21V14.21c0-3.43-2.758-6.22-6.147-6.22-3.388 0-6.147 2.79-6.147 6.22v3.336h-.21c-1.14 0-2.1.94-2.1 2.123v8.31c0 1.153.93 2.124 2.1 2.124h12.655c1.23 0 2.16-.97 2.16-2.123zm-13.285-13.74c0-2.7 2.19-4.915 4.858-4.915 2.67 0 4.86 2.215 4.86 4.914v3.336h-9.718V14.24zm-2.31 13.74v-8.31c0-.456.36-.82.81-.82h12.656c.45 0 .81.364.81.82v8.31c0 .456-.36.82-.81.82h-12.625c-.45 0-.84-.364-.84-.82zm8.398-4.944c0 .425-.15.758-.51 1-.09.062-.12.153-.12.274v1.608c0 .212-.09.424-.3.546-.45.212-.9-.122-.9-.546V24.31c0-.12-.03-.182-.12-.243-.48-.364-.63-.97-.39-1.486.24-.515.81-.818 1.35-.727.57.09.99.576.99 1.183z" id="a"/><mask id="b" x="-.5" y="-.5" width="17.914" height="23.113"><path fill="#fff" d="M200.31 7.49h17.913v23.114H200.31z"/><use xlink:href="#a"/></mask></defs><g transform="translate(-200 -7)" fill="none" fill-rule="evenodd"><use fill="#F8D81C" xlink:href="#a"/><use stroke="#F8D81C" mask="url(#b)" xlink:href="#a"/></g></svg>
