<svg id="Layer_1" data-name="Layer 1" xmlns="http://www.w3.org/2000/svg" viewBox="0 0 70 13"><defs><style>.cls-1{fill:#ff9800;}</style></defs><title>rating-4_7</title><path class="cls-1" d="M12.64,4.68l-1-.14L11,4.45l-.81-.12-1-.14-.44-.9-.36-.74L7.67,1.08a.72.72,0,0,0-1.37,0l-.37.75-.26.52-.4.82-.5,1L4,4.29l-.62.09-.85.12-1.24.18c-.43.07-.72.3-.72.7A.88.88,0,0,0,.89,6l2.5,2.4L2.8,11.81a1.37,1.37,0,0,0,0,.21.8.8,0,0,0,.14.47.63.63,0,0,0,.53.26,1,1,0,0,0,.47-.13L5.21,12l.11-.06,1-.5.36-.19L7,11l.42.22.41.21L8.88,12l1.17.62a.92.92,0,0,0,.46.13.62.62,0,0,0,.52-.26.79.79,0,0,0,.15-.47,1.55,1.55,0,0,0,0-.19L10.57,8.4l.69-.67L13.05,6h0a.86.86,0,0,0,.3-.61A.74.74,0,0,0,12.64,4.68Z"/><path class="cls-1" d="M26.58,4.68l-1-.14-.66-.1-.81-.12-1-.14-.44-.9-.36-.74-.73-1.47a.72.72,0,0,0-1.37,0l-.37.75-.26.52-.4.82-.5,1-.71.1-.62.09-.85.12-1.24.18c-.43.07-.72.3-.72.7a.88.88,0,0,0,.28.6l2.5,2.43-.59,3.41a1.37,1.37,0,0,0,0,.21.8.8,0,0,0,.14.47.63.63,0,0,0,.53.26,1,1,0,0,0,.47-.13l1.27-.67.11-.06,1-.5.36-.19L21,11l.42.22.41.21L22.9,12l1.1.61a.92.92,0,0,0,.46.13.62.62,0,0,0,.52-.26.79.79,0,0,0,.15-.47,1.55,1.55,0,0,0,0-.19L24.52,8.4l.69-.67L27,6h0a.86.86,0,0,0,.3-.61A.76.76,0,0,0,26.58,4.68Z"/><path class="cls-1" d="M40.53,4.68l-1-.14-.66-.1-.81-.12-1-.14-.44-.9-.36-.74-.73-1.47a.72.72,0,0,0-1.37,0l-.37.75-.26.52-.4.82-.5,1-.71.1-.62.09-.85.12-1.24.18c-.43.07-.72.3-.72.7a.88.88,0,0,0,.28.6l2.5,2.43-.59,3.41a1.37,1.37,0,0,0,0,.21.8.8,0,0,0,.14.47.63.63,0,0,0,.53.26,1,1,0,0,0,.47-.13l1.27-.67.11-.06,1-.5.36-.19.36-.19.42.22.41.21,1.07.56L38,12.6a.92.92,0,0,0,.46.13.62.62,0,0,0,.52-.26.79.79,0,0,0,.15-.47,1.55,1.55,0,0,0,0-.19L38.47,8.4l.69-.67L41,6h0a.86.86,0,0,0,.3-.61A.76.76,0,0,0,40.53,4.68Z"/><path class="cls-1" d="M68.56,4.74l-1-.14-.66-.09-.81-.12-1-.14-.44-.9-.36-.74-.73-1.47a.72.72,0,0,0-1.37,0l-.37.75-.26.52-.4.82-.5,1-.71.1-.62.09-.85.12-1.24.18c-.43.07-.72.3-.72.7a.88.88,0,0,0,.28.6l2.5,2.43-.59,3.41a1.37,1.37,0,0,0,0,.21.8.8,0,0,0,.14.47.63.63,0,0,0,.53.26,1,1,0,0,0,.47-.13L61.11,12l.11-.06,1-.5.36-.19.36-.19.42.22.41.21,1.07.56,1.17.62a.92.92,0,0,0,.46.13.62.62,0,0,0,.52-.26.79.79,0,0,0,.15-.47,1.55,1.55,0,0,0,0-.19L66.5,8.46l.69-.67L69,6.05h0a.86.86,0,0,0,.3-.61C69.28,5,69,4.81,68.56,4.74ZM66.67,7.27l-.82.8-.14.14V8.4l.62,3.6h0l-1.19-.62L65,11.29V5l1,.15.81.12.66.1,1,.14h0Z"/><path class="cls-1" d="M54.48,4.68l-1-.14-.66-.1L52,4.32l-1-.14-.44-.9-.36-.74-.73-1.47a.72.72,0,0,0-1.37,0l-.37.75-.26.52-.4.82-.5,1-.71.1-.62.09-.85.12-1.24.18c-.43.07-.72.3-.72.7a.88.88,0,0,0,.28.6l2.5,2.43-.59,3.41a1.37,1.37,0,0,0,0,.21.8.8,0,0,0,.14.47.63.63,0,0,0,.53.26,1,1,0,0,0,.47-.13L47,11.93l.11-.06,1-.5.36-.19.36-.19.42.22.41.21,1.07.56L52,12.6a.92.92,0,0,0,.46.13.62.62,0,0,0,.52-.26.79.79,0,0,0,.15-.47,1.55,1.55,0,0,0,0-.19L52.42,8.4l.69-.67L54.9,6h0a.86.86,0,0,0,.3-.61A.76.76,0,0,0,54.48,4.68Z"/></svg>