<?xml version="1.0" encoding="UTF-8" standalone="no"?>
<svg width="40px" height="38px" viewBox="0 0 40 38" version="1.1" xmlns="http://www.w3.org/2000/svg" xmlns:xlink="http://www.w3.org/1999/xlink">
    <!-- Generator: Sketch 42 (36781) - http://www.bohemiancoding.com/sketch -->
    <title>Imported Layers</title>
    <desc>Created with Sketch.</desc>
    <defs></defs>
    <g id="DESKTOP---REVIEW:-WRITE" stroke="none" stroke-width="1" fill="none" fill-rule="evenodd">
        <g id="WRITE-REVIEW---TABLET" transform="translate(-198.000000, -411.000000)" stroke="#FF9800">
            <g id="Rate-*****" transform="translate(197.000000, 387.000000)">
                <g id="stars" transform="translate(2.000000, 25.000000)">
                    <path d="M37.8177613,13.950127 C37.8177613,14.2821116 37.6208998,14.6479721 37.2271769,15.0409335 L28.9793615,23.0695399 L30.9343992,34.4112167 C30.9479759,34.5196198 30.9547642,34.6686741 30.9547642,34.8651548 C30.9547642,35.183589 30.8733043,35.4512092 30.7137786,35.671403 C30.554253,35.8915969 30.3268441,36 30.0213694,36 C29.7328656,36 29.4307851,35.9119225 29.115128,35.7289922 L18.9088806,30.3732003 L8.70263327,35.7289922 C8.37000532,35.9119225 8.06453067,36 7.79299765,36 C7.47734052,36 7.23635496,35.8915969 7.07682931,35.671403 C6.92069783,35.4512092 6.83923792,35.183589 6.83923792,34.8651548 C6.83923792,34.7770773 6.85281457,34.6246354 6.8867562,34.4112167 L8.83839978,23.0695399 L0.566825178,15.0409335 C0.186678951,14.6310342 0,14.2685612 0,13.950127 C0,13.3911734 0.42087618,13.0422509 1.27281103,12.906747 L12.680592,11.2502117 L17.7955952,0.92820175 C18.0840991,0.308271384 18.4540628,0 18.9088806,0 C19.3636984,0 19.7336622,0.308271384 20.022166,0.92820175 L25.1371693,11.2502117 L36.5449502,12.906747 C37.3934909,13.0422509 37.8177613,13.3911734 37.8177613,13.950127" id="Imported-Layers"></path>
                </g>
            </g>
        </g>
    </g>
</svg>